<svg id="Capa_1" data-name="Capa 1" xmlns="http://www.w3.org/2000/svg" viewBox="0 0 515.46 515.46"><defs><style>.cls-1{fill:#fff;}</style></defs><title>工作區域 1</title><path class="cls-1" d="M343.54,213.88H129.66c-10.7,0-21.39,10.7-21.39,21.39s10.69,21.39,21.39,21.39H343.54c10.69,0,21.39-10.69,21.39-21.39S354.23,213.88,343.54,213.88Z"/><path class="cls-1" d="M491.12,370l-40.64-40.64a231.55,231.55,0,0,0,19.25-94.11,234.42,234.42,0,0,0-400-166.83C24.85,113.36,1.32,173.25,1.32,235.27A234.6,234.6,0,0,0,236.6,470.54c34.22,0,66.3-6.41,94.11-19.24l40.63,40.63c15,15,36.36,23.53,55.61,23.53a89.27,89.27,0,0,0,62-25.67c32.08-36.36,34.22-87.69,2.14-119.77ZM236.6,427.77A191.7,191.7,0,0,1,44.1,235.27c0-51.33,19.25-100.52,55.61-136.88S185.27,42.78,236.6,42.78a192.5,192.5,0,0,1,0,385ZM459,457.71c-17.12,17.11-42.78,17.11-57.75,2.14L369.2,427.77c23.53-17.11,44.92-36.36,59.89-59.89L461.17,400C476.15,414.93,476.15,440.6,459,457.71Z"/></svg>