<?xml version="1.0" encoding="utf-8"?>
<!-- Generator: Adobe Illustrator 22.1.0, SVG Export Plug-In . SVG Version: 6.00 Build 0)  -->
<svg version="1.1" id="圖層_1" xmlns="http://www.w3.org/2000/svg" xmlns:xlink="http://www.w3.org/1999/xlink" x="0px" y="0px"
	 viewBox="0 0 1080 1920" style="enable-background:new 0 0 1080 1920;" xml:space="preserve">
<style type="text/css">
	.st0{fill:none;stroke:#ED6A5A;stroke-width:10;stroke-miterlimit:10;}
	.st1{fill:#404040;}
	.st2{font-family:'AdobeFanHeitiStd-Bold-B5pc-H';}
	.st3{font-size:50px;}
	.st4{letter-spacing:33.8;}
	.st5{fill:none;}
	.st6{fill:#ED6A5A;}
	.st7{fill:none;stroke:#ED6A5A;stroke-miterlimit:10;}
	.st8{fill:#9BC1BC;stroke:#00315C;stroke-width:0.6602;stroke-miterlimit:10;}
</style>
<g>
	<path class="st0" d="M822.1,437h-565c-31.2,0-56.5-25.3-56.5-56.5v-205c0-31.2,25.3-56.5,56.5-56.5h565c31.2,0,56.5,25.3,56.5,56.5
		v205C878.6,411.7,853.3,437,822.1,437z"/>
	<text transform="matrix(0.8 0 0 0.8 227.1023 177.5)"><tspan x="0" y="0" class="st1 st2 st3">◆提早2小時到公司報到、換制服</tspan><tspan x="0" y="75" class="st1 st2 st3">◆收到當天的飛行計畫跟天氣資訊</tspan><tspan x="0" y="150" class="st1 st2 st3">◆討論飛行計畫、召集空服員開會，</tspan><tspan x="0" y="225" class="st1 st2 st3 st4">	</tspan><tspan x="45" y="225" class="st1 st2 st3">周知飛行資訊與可能面臨飛行狀</tspan><tspan x="0" y="300" class="st1 st2 st3 st4">	</tspan><tspan x="45" y="300" class="st1 st2 st3">況</tspan></text>
	<rect x="378.6" y="56" class="st5" width="322" height="48"/>
	<text transform="matrix(0.8 0 0 0.8 443.4626 100)" class="st6 st2 st3">1.公司報到</text>
</g>
<g>
	<path class="st0" d="M822.1,990h-565c-31.2,0-56.5-25.3-56.5-56.5v-264c0-31.2,25.3-56.5,56.5-56.5h565c31.2,0,56.5,25.3,56.5,56.5
		v264C878.6,964.7,853.3,990,822.1,990z"/>
	<text transform="matrix(0.8 0 0 0.8 227.1023 672.5)"><tspan x="0" y="0" class="st1 st2 st3">◆出關、護照檢查</tspan><tspan x="0" y="75" class="st1 st2 st3">◆到飛機上：一人檢查機上的安全</tspan><tspan x="0" y="150" class="st1 st2 st3 st4">	</tspan><tspan x="45" y="150" class="st1 st2 st3">狀況、寫飛行計畫、選航圖與塔台</tspan><tspan x="0" y="225" class="st1 st2 st3 st4">	</tspan><tspan x="45" y="225" class="st1 st2 st3">聯絡，另一人則去外面做機外的</tspan><tspan x="0" y="300" class="st1 st2 st3 st4">	</tspan><tspan x="45" y="300" class="st1 st2 st3">檢查</tspan><tspan x="0" y="375" class="st1 st2 st3">◆開放登機</tspan></text>
	<rect x="378.1" y="547.8" class="st5" width="322" height="48"/>
	<text transform="matrix(0.8 0 0 0.8 442.9626 591.75)" class="st6 st2 st3">2.抵達機場</text>
</g>
<rect x="378.6" y="1097" class="st5" width="322" height="48"/>
<text transform="matrix(0.8 0 0 0.8 483.4626 1141)" class="st6 st2 st3">3.起飛</text>
<rect x="362.6" y="1245" class="st5" width="354" height="124"/>
<text transform="matrix(0.8 0 0 0.8 363.4626 1289)"><tspan x="0" y="0" class="st6 st2 st3">4.啟動自動駕駛後，</tspan><tspan x="70.2" y="75" class="st6 st2 st3">監視飛行狀況</tspan></text>
<g>
	<rect x="378.6" y="1458" class="st5" width="322" height="48"/>
	<text transform="matrix(0.8 0 0 0.8 483.4626 1502)" class="st6 st2 st3">5.降落</text>
	<g>
		<g>
			<path class="st7" d="M641.9,1710.5h-205c-31.2,0-56.5-25.3-56.5-56.5v-80c0-31.2,25.3-56.5,56.5-56.5h205
				c31.2,0,56.5,25.3,56.5,56.5v80C698.4,1685.2,673.1,1710.5,641.9,1710.5z"/>
		</g>
		<g>
			<path class="st0" d="M641.9,1710.5h-205c-31.2,0-56.5-25.3-56.5-56.5v-80c0-31.2,25.3-56.5,56.5-56.5h205
				c31.2,0,56.5,25.3,56.5,56.5v80C698.4,1685.2,673.1,1710.5,641.9,1710.5z"/>
		</g>
	</g>
	<rect x="420.9" y="1528" class="st5" width="278" height="264"/>
	<text transform="matrix(0.8 0 0 0.8 420.8523 1572)"><tspan x="0" y="0" class="st1 st2 st3">◆降落</tspan><tspan x="0" y="75" class="st1 st2 st3">◆停妥</tspan><tspan x="0" y="150" class="st1 st2 st3">◆飛行後討論</tspan></text>
</g>
<rect x="378.6" y="1816" class="st5" width="322" height="48"/>
<text transform="matrix(0.8 0 0 0.8 483.4626 1860)" class="st6 st2 st3">6.報離</text>
<path class="st8" d="M542.5,528.6l27.9-34.6c2-2.4,0.2-6.1-2.9-6.1h-5.4c-2.1,0-3.7-1.7-3.7-3.7V459c0-2.1-1.7-3.7-3.7-3.7h-29.4
	c-2.1,0-3.7,1.7-3.7,3.7v25.2c0,2.1-1.7,3.7-3.7,3.7h-6.1c-3.1,0-4.9,3.6-2.9,6.1l27.9,34.6C538.2,530.5,541,530.5,542.5,528.6z"/>
<path class="st8" d="M542.5,1078.6l27.9-34.6c2-2.4,0.2-6.1-2.9-6.1h-5.4c-2.1,0-3.7-1.7-3.7-3.7V1009c0-2.1-1.7-3.7-3.7-3.7h-29.4
	c-2.1,0-3.7,1.7-3.7,3.7v25.2c0,2.1-1.7,3.7-3.7,3.7h-6.1c-3.1,0-4.9,3.6-2.9,6.1l27.9,34.6C538.2,1080.5,541,1080.5,542.5,1078.6z"
	/>
<path class="st8" d="M542.5,1229.6l27.9-34.6c2-2.4,0.2-6.1-2.9-6.1h-5.4c-2.1,0-3.7-1.7-3.7-3.7V1160c0-2.1-1.7-3.7-3.7-3.7h-29.4
	c-2.1,0-3.7,1.7-3.7,3.7v25.2c0,2.1-1.7,3.7-3.7,3.7h-6.1c-3.1,0-4.9,3.6-2.9,6.1l27.9,34.6C538.2,1231.5,541,1231.5,542.5,1229.6z"
	/>
<path class="st8" d="M542.5,1441.6l27.9-34.6c2-2.4,0.2-6.1-2.9-6.1h-5.4c-2.1,0-3.7-1.7-3.7-3.7V1372c0-2.1-1.7-3.7-3.7-3.7h-29.4
	c-2.1,0-3.7,1.7-3.7,3.7v25.2c0,2.1-1.7,3.7-3.7,3.7h-6.1c-3.1,0-4.9,3.6-2.9,6.1l27.9,34.6C538.2,1443.5,541,1443.5,542.5,1441.6z"
	/>
<path class="st8" d="M542.5,1799.6l27.9-34.6c2-2.4,0.2-6.1-2.9-6.1h-5.4c-2.1,0-3.7-1.7-3.7-3.7V1730c0-2.1-1.7-3.7-3.7-3.7h-29.4
	c-2.1,0-3.7,1.7-3.7,3.7v25.2c0,2.1-1.7,3.7-3.7,3.7h-6.1c-3.1,0-4.9,3.6-2.9,6.1l27.9,34.6C538.2,1801.5,541,1801.5,542.5,1799.6z"
	/>
</svg>
