<?xml version="1.0" encoding="utf-8"?>
<!-- Generator: Adobe Illustrator 22.0.1, SVG Export Plug-In . SVG Version: 6.00 Build 0)  -->
<svg version="1.1" id="Capa_1" xmlns="http://www.w3.org/2000/svg" xmlns:xlink="http://www.w3.org/1999/xlink" x="0px" y="0px"
	 viewBox="0 0 515.5 515.5" style="enable-background:new 0 0 515.5 515.5;" xml:space="preserve">
<style type="text/css">
	.st0{fill:#FFFFFF;}
</style>
<path class="st0" d="M343.5,213.9H258v-85.6c0-10.7-10.7-21.4-21.4-21.4s-21.4,10.7-21.4,21.4v85.6h-85.6
	c-10.7,0-21.4,10.7-21.4,21.4s10.7,21.4,21.4,21.4h85.6v85.6c0,10.7,10.7,21.4,21.4,21.4s21.4-10.7,21.4-21.4v-85.6h85.6
	c10.7,0,21.4-10.7,21.4-21.4S354.2,213.9,343.5,213.9z"/>
<path class="st0" d="M491.1,370l-40.6-40.6c12.8-29.9,19.2-59.9,19.2-94.1C469.7,104.8,364.9,0,234.5,0
	C174.6,0,114.7,23.5,69.8,68.4S1.3,173.2,1.3,235.3c0,130.5,104.8,235.3,235.3,235.3c34.2,0,66.3-6.4,94.1-19.2l40.6,40.6
	c15,15,36.4,23.5,55.6,23.5c21.4,0,44.9-8.6,62-25.7C521.1,453.4,523.2,402.1,491.1,370L491.1,370z M236.6,427.8
	c-106.9,0-192.5-85.6-192.5-192.5c0-51.3,19.2-100.5,55.6-136.9c36.4-36.4,85.6-55.6,136.9-55.6c106.9,0,192.5,85.6,192.5,192.5
	S343.5,427.8,236.6,427.8z M459,457.7c-17.1,17.1-42.8,17.1-57.7,2.1l-32.1-32.1c23.5-17.1,44.9-36.4,59.9-59.9l32.1,32.1
	C476.1,414.9,476.1,440.6,459,457.7z"/>
</svg>
