<?xml version="1.0" encoding="utf-8"?>
<!-- Generator: Adobe Illustrator 22.0.1, SVG Export Plug-In . SVG Version: 6.00 Build 0)  -->
<svg version="1.1" id="圖層_1" xmlns="http://www.w3.org/2000/svg" xmlns:xlink="http://www.w3.org/1999/xlink" x="0px" y="0px"
	 viewBox="0 0 532 532" style="enable-background:new 0 0 532 532;" xml:space="preserve">
<style type="text/css">
	.st0{fill:#FFFFFF;}
</style>
<path class="st0" d="M408.5,391.1c78.9-88,76-223.9-8.6-308.5C313.5-3.8,173.7-5,85.6,79.8c-88.1,84.9-91.9,224.6-8.7,314.3
	c83.2,89.6,222.9,96.2,314,14.7l103.4,103.4c4.9,4.8,12.7,4.8,17.6,0c4.9-4.9,4.9-12.7,0-17.6L408.5,391.1z M100.1,382.5
	C21.8,305,21.2,178.6,98.8,100.3C176.3,22,302.7,21.4,381,99l1.3,1.3c77.8,77.8,77.8,204.4,0,282.2
	C304.5,460.4,177.9,460.4,100.1,382.5z"/>
<path class="st0" d="M316,228.9h-62.4v-62.3c0-6.9-5.6-12.5-12.5-12.5c-6.9,0-12.5,5.6-12.5,12.5v62.3h-62.3
	c-6.9,0-12.5,5.6-12.5,12.5c0,6.9,5.6,12.5,12.5,12.5h62.3v62.4c0,6.9,5.6,12.5,12.5,12.5c6.9,0,12.5-5.6,12.5-12.5v-62.4H316
	c6.9,0,12.5-5.6,12.5-12.5C328.5,234.5,322.9,228.9,316,228.9z"/>
</svg>
